<svg xmlns="http://www.w3.org/2000/svg" xmlns:xlink="http://www.w3.org/1999/xlink" width="250" zoomAndPan="magnify" viewBox="0 0 187.5 187.499992" height="250" preserveAspectRatio="xMidYMid meet" version="1.0"><defs><clipPath id="067271aae6"><path d="M 0 0 L 187 0 L 187 187 L 0 187 Z M 0 0 " clip-rule="nonzero"/></clipPath><clipPath id="5bafb283e9"><path d="M 1 7.160156 L 187 7.160156 L 187 179 L 1 179 Z M 1 7.160156 " clip-rule="nonzero"/></clipPath></defs><g clip-path="url(#067271aae6)"><path fill="#ffffff" d="M 0 0 L 187.5 0 L 187.5 195 L 0 195 Z M 0 0 " fill-opacity="1" fill-rule="nonzero"/><path fill="#ffffff" d="M 0 0 L 187.5 0 L 187.5 187.5 L 0 187.5 Z M 0 0 " fill-opacity="1" fill-rule="nonzero"/><path fill="#eddecb" d="M 0 0 L 187.5 0 L 187.5 187.5 L 0 187.5 Z M 0 0 " fill-opacity="1" fill-rule="nonzero"/></g><g clip-path="url(#5bafb283e9)"><path fill="#460303" d="M 122.777344 49.464844 C 119.394531 48.078125 116.1875 46.78125 112.992188 45.453125 C 108.679688 43.660156 105.023438 40.992188 102.195312 37.238281 C 101.367188 36.132812 100.679688 34.949219 100.238281 33.632812 C 99.933594 32.71875 99.921875 31.84375 100.988281 31.46875 C 101.953125 31.128906 102.535156 31.6875 102.898438 32.550781 C 104.734375 36.921875 108.082031 39.859375 112.222656 41.839844 C 116.261719 43.773438 120.5 45.285156 124.558594 47.179688 C 126.410156 48.046875 128.179688 48.652344 130.261719 48.714844 C 134.714844 48.855469 138.589844 50.699219 142.015625 53.46875 C 142.96875 54.242188 143.640625 54.425781 144.839844 53.800781 C 153.25 49.4375 162.175781 51.019531 169.644531 58.128906 C 175.25 63.457031 178.820312 70.082031 181.414062 77.253906 C 186.195312 90.480469 187.476562 104.167969 186.457031 118.117188 C 185.664062 128.925781 183.421875 139.402344 178.953125 149.328125 C 175.738281 156.46875 171.605469 162.964844 165.289062 167.792969 C 159.949219 171.878906 154.015625 173.785156 147.265625 172.195312 C 146.863281 172.101562 146.464844 171.996094 146.074219 171.859375 C 145.125 171.53125 144.148438 171.121094 144.515625 169.863281 C 144.890625 168.589844 145.917969 168.785156 146.894531 169.074219 C 151.621094 170.484375 156.117188 169.867188 160.425781 167.542969 C 163.875 165.683594 166.6875 163.082031 169.117188 160.0625 C 174.941406 152.828125 178.441406 144.453125 180.664062 135.539062 C 185.476562 116.242188 185.234375 97.082031 178.652344 78.1875 C 176.574219 72.21875 173.636719 66.683594 169.367188 61.960938 C 165.808594 58.019531 161.613281 55.125 156.191406 54.417969 C 152.769531 53.96875 149.554688 54.703125 146.472656 56.175781 C 145.851562 56.472656 145.621094 56.730469 146.167969 57.363281 C 153.589844 65.949219 157.289062 76.238281 159.351562 87.148438 C 163.210938 107.601562 161.890625 127.730469 154.683594 147.332031 C 151.734375 155.351562 147.644531 162.742188 141.386719 168.730469 C 137.535156 172.410156 133.144531 175.132812 127.761719 175.894531 C 122.832031 176.59375 118.320312 175.378906 114.164062 172.710938 C 113.390625 172.210938 112.925781 171.507812 113.4375 170.628906 C 114.003906 169.664062 114.894531 169.804688 115.714844 170.304688 C 117.929688 171.648438 120.265625 172.660156 122.851562 173.003906 C 128.339844 173.734375 133.042969 171.847656 137.238281 168.503906 C 143.308594 163.671875 147.238281 157.253906 150.328125 150.277344 C 156.117188 137.214844 158.433594 123.417969 158.539062 109.226562 C 158.628906 97.09375 156.941406 85.214844 152.53125 73.828125 C 150.398438 68.328125 147.628906 63.183594 143.601562 58.804688 C 140.46875 55.394531 136.824219 52.757812 132.191406 51.839844 C 126.644531 50.738281 121.808594 52.523438 117.410156 55.789062 C 116.527344 56.445312 115.742188 57.222656 114.878906 57.898438 C 114.324219 58.335938 114.355469 58.699219 114.722656 59.269531 C 120.941406 69.050781 123.898438 79.957031 125.613281 91.261719 C 127.347656 102.6875 127.519531 114.160156 126.1875 125.644531 C 124.675781 138.707031 121.65625 151.324219 114.980469 162.832031 C 112.476562 167.152344 109.429688 171.039062 105.460938 174.097656 C 97.382812 180.320312 88.484375 179.992188 80.820312 173.246094 C 75.871094 168.886719 72.535156 163.386719 69.90625 157.433594 C 65.929688 148.4375 63.804688 138.949219 62.691406 129.210938 C 61.359375 117.546875 61.507812 105.894531 63.261719 94.285156 C 65.074219 82.289062 68.28125 70.75 74.738281 60.320312 C 75.316406 59.386719 75.882812 58.425781 76.601562 57.605469 C 77.398438 56.691406 77.121094 56.214844 76.273438 55.550781 C 66.191406 47.691406 54.457031 48.226562 44.96875 57.015625 C 38.808594 62.726562 34.851562 69.855469 31.976562 77.617188 C 27.261719 90.355469 25.796875 103.566406 26.644531 117.070312 C 27.320312 127.757812 29.539062 138.097656 33.855469 147.929688 C 37.289062 155.742188 41.792969 162.808594 48.765625 167.976562 C 53.84375 171.742188 59.496094 173.667969 65.894531 172.730469 C 68.21875 172.390625 70.414062 171.609375 72.484375 170.484375 C 72.683594 170.375 72.863281 170.226562 73.070312 170.128906 C 73.847656 169.757812 74.625 169.710938 75.136719 170.515625 C 75.644531 171.316406 75.320312 172.046875 74.59375 172.527344 C 72.273438 174.0625 69.738281 175.042969 66.988281 175.5 C 58.761719 176.867188 51.714844 174.246094 45.484375 169.0625 C 37.761719 162.640625 32.945312 154.21875 29.511719 144.957031 C 24.335938 130.988281 22.730469 116.527344 23.890625 101.71875 C 24.761719 90.621094 27.230469 79.933594 32.152344 69.886719 C 34.480469 65.128906 37.328125 60.714844 41.011719 56.890625 C 41.863281 56.007812 41.4375 55.867188 40.585938 55.679688 C 33.03125 54.03125 26.570312 56.320312 20.898438 61.242188 C 14.773438 66.554688 11.054688 73.453125 8.390625 80.964844 C 4.757812 91.199219 3.511719 101.789062 4.011719 112.601562 C 4.554688 124.398438 7.0625 135.726562 12.328125 146.355469 C 15.574219 152.90625 19.707031 158.792969 25.613281 163.261719 C 29.925781 166.53125 34.726562 168.476562 40.191406 168.566406 C 41.214844 168.585938 42.105469 168.820312 42.066406 170.039062 C 42.023438 171.261719 41.082031 171.402344 40.089844 171.414062 C 33.902344 171.46875 28.566406 169.140625 23.765625 165.460938 C 15.851562 159.386719 10.839844 151.191406 7.246094 142.082031 C 1.621094 127.828125 -0.0117188 113.027344 1.640625 97.835938 C 2.636719 88.699219 4.941406 79.929688 9.242188 71.761719 C 12.757812 65.089844 17.308594 59.3125 23.988281 55.511719 C 30.027344 52.082031 36.398438 51.3125 43.058594 53.355469 C 43.988281 53.640625 44.640625 53.507812 45.421875 52.917969 C 52.097656 47.855469 59.464844 45.757812 67.746094 47.96875 C 71.648438 49.011719 75.125 50.945312 78.234375 53.496094 C 78.996094 54.121094 79.402344 54.1875 80.101562 53.417969 C 81.929688 51.410156 84.0625 49.738281 86.449219 48.4375 C 93.210938 44.761719 99.714844 45.355469 105.960938 49.703125 C 108.230469 51.285156 110.1875 53.207031 111.90625 55.371094 C 112.378906 55.96875 112.699219 56.050781 113.292969 55.492188 C 115.886719 53.054688 118.820312 51.132812 122.164062 49.863281 C 122.316406 49.804688 122.445312 49.683594 122.777344 49.464844 Z M 64.648438 113.285156 C 64.667969 120.785156 65.171875 127.625 66.3125 134.410156 C 67.925781 143.988281 70.515625 153.253906 75.351562 161.757812 C 77.910156 166.261719 81.007812 170.328125 85.480469 173.125 C 90.222656 176.085938 95.171875 176.496094 100.238281 173.996094 C 104.90625 171.691406 108.222656 167.925781 111.023438 163.675781 C 116.183594 155.847656 119.167969 147.125 121.207031 138.058594 C 124 125.640625 124.78125 113.078125 123.769531 100.390625 C 122.925781 89.792969 120.910156 79.453125 116.804688 69.601562 C 114.230469 63.425781 110.980469 57.664062 105.800781 53.234375 C 103.109375 50.929688 100.058594 49.34375 96.441406 49.042969 C 91.535156 48.632812 87.503906 50.585938 83.96875 53.734375 C 78.101562 58.957031 74.53125 65.683594 71.75 72.878906 C 66.648438 86.074219 64.792969 99.84375 64.648438 113.285156 Z M 98.4375 23.660156 C 99.425781 21.71875 100.175781 20.050781 101.273438 18.574219 C 104.070312 14.8125 107.46875 12.203125 112.496094 12.792969 C 113.164062 12.871094 113.488281 12.429688 113.902344 12.09375 C 117.089844 9.492188 120.582031 7.710938 124.847656 8.328125 C 128.539062 8.867188 130.851562 11.445312 132.984375 14.179688 C 133.445312 14.773438 133.324219 15.53125 132.699219 16.027344 C 132.070312 16.523438 131.394531 16.425781 130.832031 15.886719 C 130.207031 15.285156 129.636719 14.621094 129.027344 14 C 125.761719 10.667969 122.617188 10.191406 118.507812 12.441406 C 117.75 12.855469 116.660156 13.261719 116.441406 13.914062 C 116.15625 14.78125 117.449219 15.074219 118.019531 15.640625 C 119.925781 17.542969 121.328125 19.671875 121.570312 22.421875 C 121.929688 26.5625 118.976562 29.722656 114.714844 29.785156 C 110.824219 29.84375 107.871094 26.660156 108.105469 22.621094 C 108.21875 20.667969 108.835938 18.859375 109.757812 17.144531 C 109.984375 16.722656 110.402344 16.363281 110.285156 15.671875 C 108.515625 15.839844 107.074219 16.671875 105.808594 17.808594 C 103.207031 20.140625 101.710938 23.152344 100.652344 26.421875 C 100.539062 26.769531 100.464844 27.128906 100.359375 27.480469 C 100.125 28.273438 99.714844 28.933594 98.816406 29.023438 C 97.890625 29.117188 97.40625 28.484375 97.058594 27.75 C 95.828125 25.144531 94.75 22.464844 93.203125 20.015625 C 90.855469 16.308594 87.800781 13.355469 84 11.152344 C 83.035156 10.59375 82.308594 10.59375 81.472656 11.4375 C 79.5625 13.355469 77.816406 15.40625 76.132812 17.523438 C 75.464844 18.363281 75.578125 18.925781 76.445312 19.539062 C 79.179688 21.464844 81.871094 23.449219 84.144531 25.929688 C 86.121094 28.082031 87.765625 30.441406 88.257812 33.398438 C 89.167969 38.867188 86.730469 42.78125 82.371094 45.738281 C 80.660156 46.898438 78.738281 47.667969 76.839844 48.457031 C 76.011719 48.800781 75.140625 48.773438 74.71875 47.835938 C 74.257812 46.808594 74.878906 46.148438 75.765625 45.789062 C 77.644531 45.035156 79.390625 44.042969 81.105469 42.992188 C 85.53125 40.285156 86.820312 35.339844 84.226562 30.863281 C 82.273438 27.492188 79.25 25.171875 76.183594 22.90625 C 75.339844 22.28125 74.472656 21.671875 73.699219 20.964844 C 72.464844 19.828125 72.160156 18.679688 72.984375 17.261719 C 75.082031 13.671875 77.875 10.644531 81.097656 8.035156 C 82.074219 7.242188 83.191406 7.585938 84.21875 8.070312 C 88.675781 10.179688 92.15625 13.421875 94.96875 17.425781 C 96.277344 19.292969 97.277344 21.339844 98.4375 23.660156 Z M 118.742188 23.207031 C 118.761719 20.824219 116.699219 17.644531 114.472656 16.585938 C 114.101562 16.40625 113.824219 16.304688 113.53125 16.695312 C 111.925781 18.824219 110.738281 21.105469 111.097656 23.878906 C 111.34375 25.789062 112.933594 26.976562 114.890625 26.851562 C 117.191406 26.699219 118.726562 25.246094 118.742188 23.207031 Z M 33.949219 126.441406 C 34.140625 127.40625 34.542969 128.289062 35.738281 128.074219 C 36.941406 127.855469 37.003906 126.886719 36.816406 125.921875 C 34.597656 114.367188 35.117188 102.863281 37.488281 91.410156 C 39.21875 83.066406 41.851562 75.039062 46.714844 67.929688 C 49.359375 64.0625 52.425781 60.628906 57.363281 59.636719 C 58.21875 59.464844 58.765625 58.871094 58.582031 57.941406 C 58.378906 56.917969 57.5625 56.6875 56.679688 56.820312 C 54.410156 57.160156 52.414062 58.171875 50.601562 59.53125 C 46.082031 62.925781 43.121094 67.535156 40.722656 72.523438 C 34.921875 84.59375 32.761719 97.464844 32.5 110.230469 C 32.546875 116.015625 32.917969 121.257812 33.949219 126.441406 Z M 37.9375 133.078125 C 37.886719 132.277344 37.378906 131.84375 36.585938 131.863281 C 35.785156 131.882812 35.316406 132.355469 35.308594 133.15625 C 35.296875 134.023438 35.804688 134.464844 36.664062 134.527344 C 37.515625 134.417969 37.992188 133.941406 37.9375 133.078125 Z M 71.457031 100.824219 C 71.425781 101.773438 71.765625 102.496094 72.796875 102.539062 C 73.738281 102.578125 74.164062 101.933594 74.285156 101.058594 C 74.359375 100.515625 74.449219 99.972656 74.507812 99.425781 C 75.472656 89.878906 77.847656 80.703125 81.894531 71.996094 C 84.261719 66.898438 87.0625 62.085938 91.835938 58.769531 C 92.550781 58.273438 92.910156 57.570312 92.363281 56.765625 C 91.832031 55.980469 91.0625 56.003906 90.300781 56.4375 C 88.445312 57.5 86.933594 58.960938 85.585938 60.589844 C 82.132812 64.757812 79.667969 69.496094 77.652344 74.480469 C 74.300781 82.765625 72.332031 91.386719 71.457031 100.085938 C 71.457031 100.457031 71.464844 100.640625 71.457031 100.824219 Z M 71.457031 100.824219 " fill-opacity="1" fill-rule="nonzero"/><path fill="#460303" d="M 122.777344 49.464844 C 119.394531 48.078125 116.1875 46.78125 112.992188 45.453125 C 108.679688 43.660156 105.023438 40.992188 102.195312 37.238281 C 101.367188 36.132812 100.679688 34.949219 100.238281 33.632812 C 99.933594 32.71875 99.921875 31.84375 100.988281 31.46875 C 101.953125 31.128906 102.535156 31.6875 102.898438 32.550781 C 104.734375 36.921875 108.082031 39.859375 112.222656 41.839844 C 116.261719 43.773438 120.5 45.285156 124.558594 47.179688 C 126.410156 48.046875 128.179688 48.652344 130.261719 48.714844 C 134.714844 48.855469 138.589844 50.699219 142.015625 53.46875 C 142.96875 54.242188 143.640625 54.425781 144.839844 53.800781 C 153.25 49.4375 162.175781 51.019531 169.644531 58.128906 C 175.25 63.457031 178.820312 70.082031 181.414062 77.253906 C 186.195312 90.480469 187.476562 104.167969 186.457031 118.117188 C 185.664062 128.925781 183.421875 139.402344 178.953125 149.328125 C 175.738281 156.46875 171.605469 162.964844 165.289062 167.792969 C 159.949219 171.878906 154.015625 173.785156 147.265625 172.195312 C 146.863281 172.101562 146.464844 171.996094 146.074219 171.859375 C 145.125 171.53125 144.148438 171.121094 144.515625 169.863281 C 144.890625 168.589844 145.917969 168.785156 146.894531 169.074219 C 151.621094 170.484375 156.117188 169.867188 160.425781 167.542969 C 163.875 165.683594 166.6875 163.082031 169.117188 160.0625 C 174.941406 152.828125 178.441406 144.453125 180.664062 135.539062 C 185.476562 116.242188 185.234375 97.082031 178.652344 78.1875 C 176.574219 72.21875 173.636719 66.683594 169.367188 61.960938 C 165.808594 58.019531 161.613281 55.125 156.191406 54.417969 C 152.769531 53.96875 149.554688 54.703125 146.472656 56.175781 C 145.851562 56.472656 145.621094 56.730469 146.167969 57.363281 C 153.589844 65.949219 157.289062 76.238281 159.351562 87.148438 C 163.210938 107.601562 161.890625 127.730469 154.683594 147.332031 C 151.734375 155.351562 147.644531 162.742188 141.386719 168.730469 C 137.535156 172.410156 133.144531 175.132812 127.761719 175.894531 C 122.832031 176.59375 118.320312 175.378906 114.164062 172.710938 C 113.390625 172.210938 112.925781 171.507812 113.4375 170.628906 C 114.003906 169.664062 114.894531 169.804688 115.714844 170.304688 C 117.929688 171.648438 120.265625 172.660156 122.851562 173.003906 C 128.339844 173.734375 133.042969 171.847656 137.238281 168.503906 C 143.308594 163.671875 147.238281 157.253906 150.328125 150.277344 C 156.117188 137.214844 158.433594 123.417969 158.539062 109.226562 C 158.628906 97.09375 156.941406 85.214844 152.53125 73.828125 C 150.398438 68.328125 147.628906 63.183594 143.601562 58.804688 C 140.46875 55.394531 136.824219 52.757812 132.191406 51.839844 C 126.644531 50.738281 121.808594 52.523438 117.410156 55.789062 C 116.527344 56.445312 115.742188 57.222656 114.878906 57.898438 C 114.324219 58.335938 114.355469 58.699219 114.722656 59.269531 C 120.941406 69.050781 123.898438 79.957031 125.613281 91.261719 C 127.347656 102.6875 127.519531 114.160156 126.1875 125.644531 C 124.675781 138.707031 121.65625 151.324219 114.980469 162.832031 C 112.476562 167.152344 109.429688 171.039062 105.460938 174.097656 C 97.382812 180.320312 88.484375 179.992188 80.820312 173.246094 C 75.871094 168.886719 72.535156 163.386719 69.90625 157.433594 C 65.929688 148.4375 63.804688 138.949219 62.691406 129.210938 C 61.359375 117.546875 61.507812 105.894531 63.261719 94.285156 C 65.074219 82.289062 68.28125 70.75 74.738281 60.320312 C 75.316406 59.386719 75.882812 58.425781 76.601562 57.605469 C 77.398438 56.691406 77.121094 56.214844 76.273438 55.550781 C 66.191406 47.691406 54.457031 48.226562 44.96875 57.015625 C 38.808594 62.726562 34.851562 69.855469 31.976562 77.617188 C 27.261719 90.355469 25.796875 103.566406 26.644531 117.070312 C 27.320312 127.757812 29.539062 138.097656 33.855469 147.929688 C 37.289062 155.742188 41.792969 162.808594 48.765625 167.976562 C 53.84375 171.742188 59.496094 173.667969 65.894531 172.730469 C 68.21875 172.390625 70.414062 171.609375 72.484375 170.484375 C 72.683594 170.375 72.863281 170.226562 73.070312 170.128906 C 73.847656 169.757812 74.625 169.710938 75.136719 170.515625 C 75.644531 171.316406 75.320312 172.046875 74.59375 172.527344 C 72.273438 174.0625 69.738281 175.042969 66.988281 175.5 C 58.761719 176.867188 51.714844 174.246094 45.484375 169.0625 C 37.761719 162.640625 32.945312 154.21875 29.511719 144.957031 C 24.335938 130.988281 22.730469 116.527344 23.890625 101.71875 C 24.761719 90.621094 27.230469 79.933594 32.152344 69.886719 C 34.480469 65.128906 37.328125 60.714844 41.011719 56.890625 C 41.863281 56.007812 41.4375 55.867188 40.585938 55.679688 C 33.03125 54.03125 26.570312 56.320312 20.898438 61.242188 C 14.773438 66.554688 11.054688 73.453125 8.390625 80.964844 C 4.757812 91.199219 3.511719 101.789062 4.011719 112.601562 C 4.554688 124.398438 7.0625 135.726562 12.328125 146.355469 C 15.574219 152.90625 19.707031 158.792969 25.613281 163.261719 C 29.925781 166.53125 34.726562 168.476562 40.191406 168.566406 C 41.214844 168.585938 42.105469 168.820312 42.066406 170.039062 C 42.023438 171.261719 41.082031 171.402344 40.089844 171.414062 C 33.902344 171.46875 28.566406 169.140625 23.765625 165.460938 C 15.851562 159.386719 10.839844 151.191406 7.246094 142.082031 C 1.621094 127.828125 -0.0117188 113.027344 1.640625 97.835938 C 2.636719 88.699219 4.941406 79.929688 9.242188 71.761719 C 12.757812 65.089844 17.308594 59.3125 23.988281 55.511719 C 30.027344 52.082031 36.398438 51.3125 43.058594 53.355469 C 43.988281 53.640625 44.640625 53.507812 45.421875 52.917969 C 52.097656 47.855469 59.464844 45.757812 67.746094 47.96875 C 71.648438 49.011719 75.125 50.945312 78.234375 53.496094 C 78.996094 54.121094 79.402344 54.1875 80.101562 53.417969 C 81.929688 51.410156 84.0625 49.738281 86.449219 48.4375 C 93.210938 44.761719 99.714844 45.355469 105.960938 49.703125 C 108.230469 51.285156 110.1875 53.207031 111.90625 55.371094 C 112.378906 55.96875 112.699219 56.050781 113.292969 55.492188 C 115.886719 53.054688 118.820312 51.132812 122.164062 49.863281 C 122.316406 49.804688 122.445312 49.683594 122.777344 49.464844 Z M 64.648438 113.285156 C 64.667969 120.785156 65.171875 127.625 66.3125 134.410156 C 67.925781 143.988281 70.515625 153.253906 75.351562 161.757812 C 77.910156 166.261719 81.007812 170.328125 85.480469 173.125 C 90.222656 176.085938 95.171875 176.496094 100.238281 173.996094 C 104.90625 171.691406 108.222656 167.925781 111.023438 163.675781 C 116.183594 155.847656 119.167969 147.125 121.207031 138.058594 C 124 125.640625 124.78125 113.078125 123.769531 100.390625 C 122.925781 89.792969 120.910156 79.453125 116.804688 69.601562 C 114.230469 63.425781 110.980469 57.664062 105.800781 53.234375 C 103.109375 50.929688 100.058594 49.34375 96.441406 49.042969 C 91.535156 48.632812 87.503906 50.585938 83.96875 53.734375 C 78.101562 58.957031 74.53125 65.683594 71.75 72.878906 C 66.648438 86.074219 64.792969 99.84375 64.648438 113.285156 Z M 98.4375 23.660156 C 99.425781 21.71875 100.175781 20.050781 101.273438 18.574219 C 104.070312 14.8125 107.46875 12.203125 112.496094 12.792969 C 113.164062 12.871094 113.488281 12.429688 113.902344 12.09375 C 117.089844 9.492188 120.582031 7.710938 124.847656 8.328125 C 128.539062 8.867188 130.851562 11.445312 132.984375 14.179688 C 133.445312 14.773438 133.324219 15.53125 132.699219 16.027344 C 132.070312 16.523438 131.394531 16.425781 130.832031 15.886719 C 130.207031 15.285156 129.636719 14.621094 129.027344 14 C 125.761719 10.667969 122.617188 10.191406 118.507812 12.441406 C 117.75 12.855469 116.660156 13.261719 116.441406 13.914062 C 116.15625 14.78125 117.449219 15.074219 118.019531 15.640625 C 119.925781 17.542969 121.328125 19.671875 121.570312 22.421875 C 121.929688 26.5625 118.976562 29.722656 114.714844 29.785156 C 110.824219 29.84375 107.871094 26.660156 108.105469 22.621094 C 108.21875 20.667969 108.835938 18.859375 109.757812 17.144531 C 109.984375 16.722656 110.402344 16.363281 110.285156 15.671875 C 108.515625 15.839844 107.074219 16.671875 105.808594 17.808594 C 103.207031 20.140625 101.710938 23.152344 100.652344 26.421875 C 100.539062 26.769531 100.464844 27.128906 100.359375 27.480469 C 100.125 28.273438 99.714844 28.933594 98.816406 29.023438 C 97.890625 29.117188 97.40625 28.484375 97.058594 27.75 C 95.828125 25.144531 94.75 22.464844 93.203125 20.015625 C 90.855469 16.308594 87.800781 13.355469 84 11.152344 C 83.035156 10.59375 82.308594 10.59375 81.472656 11.4375 C 79.5625 13.355469 77.816406 15.40625 76.132812 17.523438 C 75.464844 18.363281 75.578125 18.925781 76.445312 19.539062 C 79.179688 21.464844 81.871094 23.449219 84.144531 25.929688 C 86.121094 28.082031 87.765625 30.441406 88.257812 33.398438 C 89.167969 38.867188 86.730469 42.78125 82.371094 45.738281 C 80.660156 46.898438 78.738281 47.667969 76.839844 48.457031 C 76.011719 48.800781 75.140625 48.773438 74.71875 47.835938 C 74.257812 46.808594 74.878906 46.148438 75.765625 45.789062 C 77.644531 45.035156 79.390625 44.042969 81.105469 42.992188 C 85.53125 40.285156 86.820312 35.339844 84.226562 30.863281 C 82.273438 27.492188 79.25 25.171875 76.183594 22.90625 C 75.339844 22.28125 74.472656 21.671875 73.699219 20.964844 C 72.464844 19.828125 72.160156 18.679688 72.984375 17.261719 C 75.082031 13.671875 77.875 10.644531 81.097656 8.035156 C 82.074219 7.242188 83.191406 7.585938 84.21875 8.070312 C 88.675781 10.179688 92.15625 13.421875 94.96875 17.425781 C 96.277344 19.292969 97.277344 21.339844 98.4375 23.660156 Z M 118.742188 23.207031 C 118.761719 20.824219 116.699219 17.644531 114.472656 16.585938 C 114.101562 16.40625 113.824219 16.304688 113.53125 16.695312 C 111.925781 18.824219 110.738281 21.105469 111.097656 23.878906 C 111.34375 25.789062 112.933594 26.976562 114.890625 26.851562 C 117.191406 26.699219 118.726562 25.246094 118.742188 23.207031 Z M 33.949219 126.441406 C 34.140625 127.40625 34.542969 128.289062 35.738281 128.074219 C 36.941406 127.855469 37.003906 126.886719 36.816406 125.921875 C 34.597656 114.367188 35.117188 102.863281 37.488281 91.410156 C 39.21875 83.066406 41.851562 75.039062 46.714844 67.929688 C 49.359375 64.0625 52.425781 60.628906 57.363281 59.636719 C 58.21875 59.464844 58.765625 58.871094 58.582031 57.941406 C 58.378906 56.917969 57.5625 56.6875 56.679688 56.820312 C 54.410156 57.160156 52.414062 58.171875 50.601562 59.53125 C 46.082031 62.925781 43.121094 67.535156 40.722656 72.523438 C 34.921875 84.59375 32.761719 97.464844 32.5 110.230469 C 32.546875 116.015625 32.917969 121.257812 33.949219 126.441406 Z M 37.9375 133.078125 C 37.886719 132.277344 37.378906 131.84375 36.585938 131.863281 C 35.785156 131.882812 35.316406 132.355469 35.308594 133.15625 C 35.296875 134.023438 35.804688 134.464844 36.664062 134.527344 C 37.515625 134.417969 37.992188 133.941406 37.9375 133.078125 Z M 71.457031 100.824219 C 71.425781 101.773438 71.765625 102.496094 72.796875 102.539062 C 73.738281 102.578125 74.164062 101.933594 74.285156 101.058594 C 74.359375 100.515625 74.449219 99.972656 74.507812 99.425781 C 75.472656 89.878906 77.847656 80.703125 81.894531 71.996094 C 84.261719 66.898438 87.0625 62.085938 91.835938 58.769531 C 92.550781 58.273438 92.910156 57.570312 92.363281 56.765625 C 91.832031 55.980469 91.0625 56.003906 90.300781 56.4375 C 88.445312 57.5 86.933594 58.960938 85.585938 60.589844 C 82.132812 64.757812 79.667969 69.496094 77.652344 74.480469 C 74.300781 82.765625 72.332031 91.386719 71.457031 100.085938 C 71.457031 100.457031 71.464844 100.640625 71.457031 100.824219 Z M 71.457031 100.824219 " fill-opacity="1" fill-rule="nonzero"/></g></svg>